<svg xmlns="http://www.w3.org/2000/svg" viewBox="0 0 48 48" width="100" height="100">
  <path fill="#0081FB" d="M47.761,23.506c0,-13.517 -10.961,-24.478 -24.478,-24.478c-13.517,0 -24.478,10.961 -24.478,24.478c0,12.21 8.946,22.338 20.651,24.163l0,-17.095l-6.216,0l0,-7.068l6.216,0l0,-5.389c0,-6.134 3.653,-9.521 9.241,-9.521c2.677,0 5.476,0.478 5.476,0.478l0,6.019l-3.084,0c-3.038,0 -3.986,1.886 -3.986,3.821l0,4.592l6.783,0l-1.084,7.068l-5.699,0l0,17.095c11.705,-1.825 20.651,-11.953 20.651,-24.163Z"/>
</svg>