<svg xmlns="http://www.w3.org/2000/svg" viewBox="0 0 48 48" width="100" height="100">
  <path fill="#FF4500" d="M48,24c0,13.255-10.745,24-24,24S0,37.255,0,24S10.745,0,24,0S48,10.745,48,24z"/>
  <path fill="#FFF" d="M40,24c0-2.209-1.791-4-4-4c-1.082,0-2.063,0.431-2.783,1.129c-2.747-1.973-6.536-3.247-10.737-3.399l1.829-8.618l5.973,1.271c0.073,1.547,1.345,2.783,2.918,2.783c1.618,0,2.933-1.315,2.933-2.933S34.818,7.3,33.2,7.3c-1.197,0-2.222,0.718-2.676,1.746l-6.639-1.413c-0.379-0.081-0.758,0.156-0.839,0.535l-2.031,9.574c-4.306,0.098-8.203,1.381-11.011,3.396C9.285,20.419,8.289,20,7.2,20c-2.209,0-4,1.791-4,4c0,1.565,0.901,2.916,2.209,3.572c-0.059,0.381-0.109,0.763-0.109,1.162c0,5.915,6.887,10.711,15.38,10.711s15.38-4.796,15.38-10.711c0-0.399-0.05-0.781-0.109-1.162C39.099,26.916,40,25.565,40,24z M15.6,26.667c0-1.473,1.194-2.667,2.667-2.667s2.667,1.194,2.667,2.667s-1.194,2.667-2.667,2.667S15.6,28.14,15.6,26.667z M29.991,34.156c-1.825,1.825-5.316,1.959-6.711,1.959s-4.886-0.134-6.711-1.959c-0.341-0.341-0.341-0.894,0-1.235c0.341-0.341,0.894-0.341,1.235,0c1.147,1.147,3.632,1.555,5.476,1.555s4.329-0.408,5.476-1.555c0.341-0.341,0.894-0.341,1.235,0C30.332,33.262,30.332,33.815,29.991,34.156z M29.067,29.333c-1.473,0-2.667-1.194-2.667-2.667s1.194-2.667,2.667-2.667s2.667,1.194,2.667,2.667S30.54,29.333,29.067,29.333z"/>
</svg>