<svg xmlns="http://www.w3.org/2000/svg" viewBox="0 0 48 48" width="100" height="100">
  <path fill="#00F2EA" d="M39.1,24.9c-3.2,0-6.1-1.2-8.3-3.1v14.1c0,7.1-5.8,12.9-12.9,12.9S5,43,5,35.9s5.8-12.9,12.9-12.9c0.7,0,1.4,0.1,2.1,0.2v7.1c-0.7-0.2-1.4-0.3-2.1-0.3c-3.1,0-5.7,2.5-5.7,5.7s2.5,5.7,5.7,5.7s5.7-2.5,5.7-5.7V1h6.9c0.4,4.5,3.4,8.3,7.5,9.7v7.3C36.6,18.6,35.3,18.9,34,19.2z"/>
  <path fill="#FF004F" d="M43,13.1c0,0.1,0,0.1,0,0.2v7.3c-2.6-0.6-5-1.7-7.1-3.2v14.1c0,7.1-5.8,12.9-12.9,12.9c-3.5,0-6.6-1.4-8.9-3.6c2.5,2.7,6.1,4.4,10.1,4.4c7.1,0,12.9-5.8,12.9-12.9V18.2c2.1,1.5,4.5,2.6,7.1,3.2v-7.3C43.7,13.8,43.4,13.5,43,13.1z"/>
  <path fill="#000" d="M35.9,31.8V17.7c2.1,1.5,4.5,2.6,7.1,3.2v-7.3c-4.1-1.4-7.1-5.2-7.5-9.7h-6.9v34.9c0,3.1-2.5,5.7-5.7,5.7s-5.7-2.5-5.7-5.7s2.5-5.7,5.7-5.7c0.7,0,1.4,0.1,2.1,0.3v-7.1c-0.7-0.1-1.4-0.2-2.1-0.2C15.8,23,10,28.8,10,35.9s5.8,12.9,12.9,12.9S35.9,43,35.9,35.9z"/>
</svg>